<svg xmlns="http://www.w3.org/2000/svg" viewBox="0 0 32 32" width="32" height="32">
  <defs>
    <!-- Clock gradient -->
    <linearGradient id="clockGradient" x1="0%" y1="0%" x2="100%" y2="100%">
      <stop offset="0%" style="stop-color:#66c2a8;stop-opacity:1" />
      <stop offset="50%" style="stop-color:#4ecdc4;stop-opacity:1" />
      <stop offset="100%" style="stop-color:#44a08d;stop-opacity:1" />
    </linearGradient>
    
    <!-- Arrow gradient -->
    <linearGradient id="arrowGradient" x1="0%" y1="0%" x2="100%" y2="0%">
      <stop offset="0%" style="stop-color:#ffffff;stop-opacity:1" />
      <stop offset="50%" style="stop-color:#e6f3ff;stop-opacity:1" />
      <stop offset="100%" style="stop-color:#ffffff;stop-opacity:1" />
    </linearGradient>
  </defs>
  
  <!-- Background circle -->
  <circle cx="16" cy="16" r="15" fill="#1a2332" stroke="#2a3441" stroke-width="1"/>
  
  <!-- Clock face -->
  <circle cx="16" cy="16" r="10" fill="url(#clockGradient)" stroke="#0b0f12" stroke-width="1"/>
  
  <!-- Clock center dot -->
  <circle cx="16" cy="16" r="1" fill="#0b0f12"/>
  
  <!-- Clock hands -->
  <line x1="16" y1="16" x2="16" y2="8" stroke="#0b0f12" stroke-width="1" stroke-linecap="round"/>
  <line x1="16" y1="16" x2="20" y2="16" stroke="#0b0f12" stroke-width="0.8" stroke-linecap="round"/>
  
  <!-- Cycle arrow around the clock -->
  <path d="M 26 16 A 10 10 0 1 1 6 16 A 10 10 0 1 1 26 16" stroke="url(#arrowGradient)" stroke-width="1.5" fill="none" stroke-linecap="round"/>
  <path d="M 4 14 L 2 16 L 4 18" stroke="url(#arrowGradient)" stroke-width="1.5" fill="none" stroke-linecap="round" stroke-linejoin="round"/>
  
  <!-- Clock hour markers -->
  <circle cx="16" cy="5" r="0.5" fill="#0b0f12"/>
  <circle cx="21" cy="16" r="0.5" fill="#0b0f12"/>
  <circle cx="16" cy="27" r="0.5" fill="#0b0f12"/>
  <circle cx="11" cy="16" r="0.5" fill="#0b0f12"/>
</svg>